<svg width="330" height="203" viewBox="0 0 330 203" fill="none" xmlns="http://www.w3.org/2000/svg">
<mask id="mask0_9_647" style="mask-type:alpha" maskUnits="userSpaceOnUse" x="0" y="0" width="330" height="203">
<path d="M0 0.923096H330V202.047H9.99999C4.47714 202.047 0 197.57 0 192.047V0.923096Z" fill="#0E1227"/>
</mask>
<g mask="url(#mask0_9_647)">
<path opacity="0.15" fill-rule="evenodd" clip-rule="evenodd" d="M-36.8289 -151.385V-106.517L-92.7155 -106.517V-151.385H-93.7155V-106.517H-115.207V-105.517H-93.7155L-93.7155 -49.6347H-115.207V-48.6347H-93.7155V7.2471H-115.207V8.2471H-93.7155V64.1292H-115.207V65.1292H-93.7155V123.237H-115.207L-115.207 124.237H-93.7155L-93.7155 177.893H-115.207V178.893H-93.7155V234.774H-115.207V235.774H-93.7155L-93.7155 291.656H-115.207V292.656H-93.7155V333.852H-92.7155V292.656H-36.8289V333.852H-35.8289V292.656H20.05V333.852H21.05V292.656H76.9289V333.852H77.9289V292.656L133.816 292.656V333.852H134.816V292.656H190.702V333.852H191.702V292.656H247.565V333.852H248.565V292.656H304.452V333.852H305.452V292.656H370.03V291.656H305.452V235.774H370.03V234.774H305.452V178.893H370.03V177.893H305.452V124.237H370.03V123.237H305.452L305.452 65.1292H370.03V64.1292H305.452V8.24712H370.03V7.24712H305.452V-48.6347H370.03V-49.6347H305.452V-105.517L370.03 -105.517V-106.517L305.452 -106.517V-151.385H304.452V-106.517L248.565 -106.517V-151.385H247.565V-106.517L191.702 -106.517V-151.385H190.702V-106.517L134.816 -106.517V-151.385H133.816V-106.517L77.9289 -106.517V-151.385H76.9289V-106.517L21.05 -106.517V-151.385H20.05V-106.517L-35.8289 -106.517V-151.385H-36.8289ZM304.452 291.656V235.774H248.565V291.656H304.452ZM247.565 291.656V235.774H191.702V291.656H247.565ZM190.702 291.656V235.774H134.816V291.656H190.702ZM133.816 291.656V235.774L77.9289 235.774V291.656L133.816 291.656ZM76.9289 291.656V235.774H21.05V291.656H76.9289ZM20.05 291.656V235.774H-35.8289L-35.8289 291.656H20.05ZM-36.8289 291.656L-36.8289 235.774H-92.7155L-92.7155 291.656H-36.8289ZM-36.8289 234.774H-92.7155V178.893H-36.8289V234.774ZM20.05 234.774H-35.8289V178.893H20.05L20.05 234.774ZM76.9289 234.774H21.05L21.05 178.893H76.9289L76.9289 234.774ZM133.816 234.774L77.9289 234.774L77.9289 178.893L133.816 178.893L133.816 234.774ZM190.702 234.774H134.816L134.816 178.893H190.702V234.774ZM247.565 234.774H191.702V178.893H247.565V234.774ZM304.452 234.774H248.565V178.893H304.452V234.774ZM304.452 177.893V124.237H248.565V177.893H304.452ZM247.565 177.893V124.237H191.702V177.893H247.565ZM190.702 177.893V124.237H134.816V177.893H190.702ZM133.816 177.893V124.237L77.9289 124.237V177.893L133.816 177.893ZM76.9289 177.893V124.237H21.05V177.893H76.9289ZM20.05 177.893V124.237H-35.8289L-35.8289 177.893H20.05ZM-36.8289 177.893L-36.8289 124.237H-92.7155L-92.7155 177.893H-36.8289ZM-36.8289 123.237H-92.7155V65.1292H-36.8289V123.237ZM20.05 123.237H-35.8289V65.1292L20.05 65.1292V123.237ZM76.9289 123.237H21.05V65.1292H76.9289V123.237ZM133.816 123.237L77.9289 123.237V65.1292H133.816V123.237ZM190.702 123.237H134.816V65.1292H190.702L190.702 123.237ZM247.565 123.237H191.702L191.702 65.1292L247.565 65.1292L247.565 123.237ZM304.452 123.237H248.565L248.565 65.1292L304.452 65.1292L304.452 123.237ZM304.452 64.1292V8.24712H248.565V64.1292L304.452 64.1292ZM247.565 64.1292V8.24712L191.702 8.24712V64.1292L247.565 64.1292ZM190.702 64.1292V8.24712H134.816V64.1292H190.702ZM133.816 64.1292V8.24712L77.9289 8.2471V64.1292H133.816ZM76.9289 64.1292V8.2471H21.05V64.1292H76.9289ZM20.05 64.1292V8.2471L-35.8289 8.2471L-35.8289 64.1292L20.05 64.1292ZM-36.8289 64.1292L-36.8289 8.2471H-92.7155V64.1292H-36.8289ZM-36.8289 7.2471H-92.7155V-48.6347L-36.8289 -48.6347V7.2471ZM20.05 7.2471L-35.8289 7.2471V-48.6347L20.05 -48.6347L20.05 7.2471ZM76.9289 7.2471H21.05L21.05 -48.6347L76.9289 -48.6347L76.9289 7.2471ZM133.816 7.24712L77.9289 7.2471L77.9289 -48.6347H133.816L133.816 7.24712ZM190.702 7.24712H134.816L134.816 -48.6347L190.702 -48.6347V7.24712ZM247.565 7.24712L191.702 7.24712V-48.6347H247.565V7.24712ZM304.452 7.24712H248.565V-48.6347L304.452 -48.6347V7.24712ZM304.452 -49.6347V-105.517L248.565 -105.517V-49.6347L304.452 -49.6347ZM247.565 -49.6347V-105.517L191.702 -105.517V-49.6347H247.565ZM190.702 -49.6347V-105.517L134.816 -105.517V-49.6347L190.702 -49.6347ZM133.816 -49.6347V-105.517L77.9289 -105.517V-49.6347H133.816ZM76.9289 -49.6347V-105.517L21.05 -105.517V-49.6347L76.9289 -49.6347ZM20.05 -49.6347V-105.517L-35.8289 -105.517L-35.8289 -49.6347L20.05 -49.6347ZM-36.8289 -49.6347L-36.8289 -105.517L-92.7155 -105.517L-92.7155 -49.6347L-36.8289 -49.6347Z" fill="url(#paint0_radial_9_647)"/>
<g opacity="0.11" filter="url(#filter0_f_9_647)">
<ellipse cx="149.379" cy="203.024" rx="118.136" ry="49.7929" transform="rotate(-180 149.379 203.024)" fill="#01EFA2"/>
</g>
<line opacity="0.7" x1="19.5264" y1="201.547" x2="257.751" y2="201.547" stroke="url(#paint1_linear_9_647)"/>
</g>
<defs>
<filter id="filter0_f_9_647" x="-92.7578" y="29.2307" width="484.272" height="347.586" filterUnits="userSpaceOnUse" color-interpolation-filters="sRGB">
<feFlood flood-opacity="0" result="BackgroundImageFix"/>
<feBlend mode="normal" in="SourceGraphic" in2="BackgroundImageFix" result="shape"/>
<feGaussianBlur stdDeviation="62" result="effect1_foregroundBlur_9_647"/>
</filter>
<radialGradient id="paint0_radial_9_647" cx="0" cy="0" r="1" gradientUnits="userSpaceOnUse" gradientTransform="translate(135.229 174.104) rotate(-99.1236) scale(159.419 159.419)">
<stop stop-color="#01EFA2"/>
<stop offset="1" stop-color="#01EFA2" stop-opacity="0"/>
</radialGradient>
<linearGradient id="paint1_linear_9_647" x1="257.678" y1="203.112" x2="26.9388" y2="203.112" gradientUnits="userSpaceOnUse">
<stop offset="0.000536964" stop-color="#2C3250" stop-opacity="0"/>
<stop offset="0.494792" stop-color="#01EFA2"/>
<stop offset="1" stop-color="#2C3250" stop-opacity="0"/>
</linearGradient>
</defs>
</svg>
