<svg width="30" height="28" viewBox="0 0 30 28" fill="none" xmlns="http://www.w3.org/2000/svg">
<path d="M10.1998 22.543C10.1998 22.6588 10.0653 22.7514 9.89577 22.7514C9.70282 22.7688 9.56835 22.6762 9.56835 22.543C9.56835 22.4273 9.70282 22.3347 9.87238 22.3347C10.0478 22.3173 10.1998 22.4099 10.1998 22.543ZM8.38145 22.2826C8.34052 22.3983 8.45746 22.5314 8.63286 22.5662C8.78488 22.6241 8.96028 22.5662 8.99536 22.4504C9.03044 22.3347 8.91935 22.2015 8.74395 22.1494C8.59194 22.1089 8.42238 22.1668 8.38145 22.2826ZM10.9657 22.1842C10.7962 22.2247 10.6792 22.3347 10.6968 22.4678C10.7143 22.5835 10.8663 22.6588 11.0417 22.6183C11.2113 22.5778 11.3282 22.4678 11.3107 22.352C11.2931 22.242 11.1353 22.1668 10.9657 22.1842ZM14.8129 0.00421143C6.70343 0.00421143 0.5 6.09907 0.5 14.1271C0.5 20.5461 4.58105 26.039 10.4103 27.9723C11.1587 28.1054 11.4218 27.6481 11.4218 27.2719C11.4218 26.913 11.4042 24.9335 11.4042 23.718C11.4042 23.718 7.31149 24.5862 6.45202 21.9932C6.45202 21.9932 5.78548 20.3088 4.82661 19.8747C4.82661 19.8747 3.4877 18.966 4.92016 18.9834C4.92016 18.9834 6.37601 19.0991 7.17702 20.4767C8.45746 22.7109 10.6032 22.0684 11.4393 21.6864C11.5738 20.7603 11.9538 20.1178 12.3748 19.7358C9.10645 19.3769 5.80887 18.9081 5.80887 13.34C5.80887 11.7482 6.25323 10.9495 7.18871 9.93078C7.03669 9.55456 6.53972 8.00335 7.34073 6.00067C8.5627 5.62444 11.375 7.56345 11.375 7.56345C12.5444 7.23932 13.8014 7.07147 15.0468 7.07147C16.2921 7.07147 17.5492 7.23932 18.7185 7.56345C18.7185 7.56345 21.5308 5.61866 22.7528 6.00067C23.5538 8.00914 23.0569 9.55456 22.9048 9.93078C23.8403 10.9553 24.4133 11.754 24.4133 13.34C24.4133 18.9255 20.9696 19.3712 17.7012 19.7358C18.2391 20.1931 18.6952 21.0613 18.6952 22.4215C18.6952 24.3721 18.6776 26.7857 18.6776 27.2603C18.6776 27.6365 18.9466 28.0938 19.6891 27.9607C25.5359 26.039 29.5 20.5461 29.5 14.1271C29.5 6.09907 22.9224 0.00421143 14.8129 0.00421143ZM6.18306 19.9673C6.10706 20.0252 6.1246 20.1583 6.22399 20.2683C6.31754 20.3609 6.45202 20.4014 6.52802 20.3262C6.60403 20.2683 6.58649 20.1352 6.4871 20.0252C6.39355 19.9326 6.25907 19.8921 6.18306 19.9673ZM5.55161 19.4985C5.51069 19.5737 5.56915 19.6663 5.68609 19.7242C5.77964 19.7821 5.89657 19.7647 5.9375 19.6837C5.97843 19.6085 5.91996 19.5159 5.80302 19.458C5.68609 19.4232 5.59254 19.4406 5.55161 19.4985ZM7.44597 21.559C7.35242 21.6343 7.3875 21.8079 7.52198 21.9179C7.65645 22.051 7.82601 22.0684 7.90202 21.9758C7.97802 21.9005 7.94294 21.7269 7.82601 21.6169C7.69738 21.4838 7.52198 21.4664 7.44597 21.559ZM6.77944 20.7082C6.68589 20.7661 6.68589 20.9166 6.77944 21.0497C6.87298 21.1828 7.03085 21.2407 7.10685 21.1828C7.2004 21.1076 7.2004 20.9571 7.10685 20.824C7.025 20.6908 6.87298 20.633 6.77944 20.7082Z" fill="#01C2ED"/>
</svg>
