<svg width="20" height="20" viewBox="0 0 20 20" fill="none" xmlns="http://www.w3.org/2000/svg">
<path d="M4.47679 19.6219H0.330357V6.77382H4.47679V19.6219ZM2.40134 5.02122C1.07545 5.02122 0 3.9645 0 2.68871C9.49017e-09 2.0759 0.252998 1.48819 0.703336 1.05487C1.15367 0.62155 1.76446 0.378113 2.40134 0.378113C3.03821 0.378113 3.649 0.62155 4.09934 1.05487C4.54968 1.48819 4.80268 2.0759 4.80268 2.68871C4.80268 3.9645 3.72679 5.02122 2.40134 5.02122ZM19.9955 19.6219H15.858V13.3675C15.858 11.877 15.8268 9.96544 13.7022 9.96544C11.5464 9.96544 11.2161 11.5849 11.2161 13.2602V19.6219H7.07411V6.77382H11.0509V8.52642H11.1089C11.6625 7.51695 13.0147 6.45165 15.0321 6.45165C19.2286 6.45165 20 9.11062 20 12.5643V19.6219H19.9955Z" fill="#01C2ED"/>
</svg>
