<svg width="302" height="217" viewBox="0 0 302 217" fill="none" xmlns="http://www.w3.org/2000/svg">
<path opacity="0.2" d="M72.831 0.999792C56.7344 0.999792 43.2535 4.83927 32.3883 12.5182C21.5231 20.1971 13.4748 30.0989 8.24346 42.2236C3.41449 54.3482 1 67.2812 1 81.0224C1 101.23 5.42656 120.225 14.2797 138.008C23.5352 156.195 35.004 171.957 48.6861 185.294C62.3682 198.632 76.4527 208.533 90.9396 215L138.626 181.051C127.761 176.201 117.298 170.341 107.237 163.47C97.1771 156.599 88.1227 149.123 80.0744 141.039C72.4286 132.956 66.5936 124.671 62.5694 116.184L64.9839 114.365C68.2032 115.982 71.4225 117.194 74.6419 118.003C77.8612 118.811 82.0865 119.215 87.3179 119.215C95.3662 119.215 103.414 117.194 111.463 113.153C119.913 109.515 126.956 103.655 132.59 95.572C138.223 87.8931 141.04 77.7892 141.04 65.2604C141.04 51.115 137.821 39.1924 131.382 29.4927C124.944 19.793 116.493 12.5182 106.03 7.66833C95.9698 3.22264 84.9034 0.999792 72.831 0.999792ZM233.394 0.999792C216.895 0.999792 203.213 4.83927 192.348 12.5182C181.483 20.1971 173.435 30.0989 168.203 42.2236C163.374 54.3482 160.96 67.2812 160.96 81.0224C160.96 101.23 165.386 120.225 174.239 138.008C183.495 156.195 194.964 171.957 208.646 185.294C222.328 198.632 236.614 208.533 251.503 215L298.586 181.051C287.72 176.201 277.258 170.341 267.197 163.47C257.137 156.599 248.083 149.123 240.034 141.039C232.388 132.956 226.553 124.671 222.529 116.184L225.547 114.365C228.364 115.982 231.382 117.194 234.602 118.003C237.821 118.811 242.248 119.215 247.881 119.215C255.93 119.215 263.978 117.194 272.026 113.153C280.074 109.515 286.916 103.655 292.549 95.572C298.183 87.8931 301 77.7892 301 65.2604C301 51.115 297.781 39.1924 291.342 29.4927C284.903 19.793 276.453 12.5182 265.99 7.66833C255.93 3.22264 245.064 0.999792 233.394 0.999792Z" stroke="url(#paint0_linear_9_635)" stroke-width="2"/>
<defs>
<linearGradient id="paint0_linear_9_635" x1="-2.0376" y1="-129.475" x2="253.91" y2="175.79" gradientUnits="userSpaceOnUse">
<stop offset="0.0885417" stop-color="#2C3250" stop-opacity="0"/>
<stop offset="0.298678" stop-color="#01EBAA"/>
<stop offset="0.696476" stop-color="#02C2ED"/>
<stop offset="0.90625" stop-color="#2C3250" stop-opacity="0"/>
</linearGradient>
</defs>
</svg>
