<svg width="302" height="217" viewBox="0 0 302 217" fill="none" xmlns="http://www.w3.org/2000/svg">
<path opacity="0.2" d="M229.169 1.00003C245.266 1.00003 258.746 4.83951 269.612 12.5184C280.477 20.1974 288.525 30.0992 293.757 42.2238C298.586 54.3485 301 67.2814 301 81.0227C301 101.23 296.573 120.226 287.72 138.009C278.465 156.195 266.996 171.958 253.314 185.295C239.632 198.632 225.547 208.534 211.06 215L163.374 181.051C174.239 176.201 184.702 170.341 194.763 163.47C204.823 156.6 213.877 149.123 221.926 141.04C229.571 132.957 235.406 124.671 239.431 116.184L237.016 114.365C233.797 115.982 230.577 117.195 227.358 118.003C224.139 118.811 219.913 119.215 214.682 119.215C206.634 119.215 198.586 117.195 190.537 113.153C182.087 109.516 175.044 103.655 169.41 95.5722C163.777 87.8933 160.96 77.7894 160.96 65.2606C160.96 51.1152 164.179 39.1926 170.618 29.4929C177.056 19.7932 185.507 12.5184 195.97 7.66857C206.03 3.22288 217.097 1.00003 229.169 1.00003ZM68.6057 1.00002C85.1046 1.00002 98.7867 4.83949 109.652 12.5184C120.517 20.1974 128.565 30.0992 133.797 42.2238C138.626 54.3484 141.04 67.2814 141.04 81.0227C141.04 101.23 136.614 120.226 127.761 138.009C118.505 156.195 107.036 171.958 93.3541 185.295C79.672 198.632 65.3863 208.534 50.497 215L3.41448 181.051C14.2797 176.201 24.7425 170.341 34.8028 163.47C44.8632 156.6 53.9175 149.123 61.9658 141.04C69.6117 132.957 75.4467 124.671 79.4708 116.184L76.4527 114.365C73.6358 115.982 70.6177 117.195 67.3984 118.003C64.1791 118.811 59.7525 119.215 54.1187 119.215C46.0704 119.215 38.0221 117.195 29.9738 113.153C21.9255 109.516 15.0845 103.655 9.45068 95.5722C3.81688 87.8933 0.999993 77.7894 0.999994 65.2606C0.999995 51.1152 4.21933 39.1926 10.658 29.4929C17.0966 19.7932 25.5473 12.5184 36.0101 7.66856C46.0704 3.22286 56.9356 1.00001 68.6057 1.00002Z" stroke="url(#paint0_linear_9_634)" stroke-width="2"/>
<defs>
<linearGradient id="paint0_linear_9_634" x1="114.829" y1="-92.5484" x2="418.934" y2="449.052" gradientUnits="userSpaceOnUse">
<stop offset="0.0885417" stop-color="#2C3250" stop-opacity="0"/>
<stop offset="0.298678" stop-color="#01EBAA"/>
<stop offset="0.696476" stop-color="#02C2ED"/>
<stop offset="0.90625" stop-color="#2C3250" stop-opacity="0"/>
</linearGradient>
</defs>
</svg>
