<svg width="26" height="22" viewBox="0 0 26 22" fill="none" xmlns="http://www.w3.org/2000/svg">
<path d="M23.3274 5.70591C23.3439 5.9368 23.3439 6.16773 23.3439 6.39862C23.3439 13.4409 17.9823 21.5552 8.18274 21.5552C5.16369 21.5552 2.35914 20.6811 0 19.1638C0.428949 19.2133 0.841344 19.2298 1.2868 19.2298C3.77787 19.2298 6.07105 18.3887 7.90227 16.9538C5.55963 16.9043 3.59643 15.3706 2.92002 13.2595C3.25 13.3089 3.57993 13.3419 3.92641 13.3419C4.40482 13.3419 4.88328 13.2759 5.32868 13.1606C2.88707 12.6657 1.05579 10.5217 1.05579 7.93241V7.86647C1.76516 8.26229 2.5901 8.50967 3.4644 8.54262C2.02912 7.58603 1.0888 5.9533 1.0888 4.10612C1.0888 3.11659 1.35271 2.2095 1.81467 1.41786C4.43777 4.65039 8.38068 6.76139 12.802 6.99233C12.7195 6.5965 12.67 6.18423 12.67 5.77191C12.67 2.83621 15.0456 0.444824 17.9987 0.444824C19.5329 0.444824 20.9187 1.08803 21.8921 2.12706C23.0963 1.89618 24.2511 1.45086 25.274 0.840647C24.878 2.07761 24.0367 3.11664 22.9314 3.7763C24.0037 3.6609 25.0431 3.36397 25.9999 2.9517C25.2741 4.00718 24.3667 4.94722 23.3274 5.70591Z" fill="#01C2ED"/>
</svg>
