<svg width="44" height="35" viewBox="0 0 44 35" fill="none" xmlns="http://www.w3.org/2000/svg">
<path d="M3.4956 34.35C2.53187 34.35 1.70833 34.0069 1.025 33.3206C0.341667 32.6343 0 31.8093 0 30.8456C0 29.8819 0.341567 29.0583 1.0247 28.375C1.70783 27.6917 2.52905 27.35 3.48835 27.35C3.66278 27.35 3.83333 27.3583 4 27.375C4.16667 27.3917 4.38333 27.4333 4.65 27.5L14.65 17.5C14.5833 17.2333 14.5417 17.0167 14.525 16.85C14.5083 16.6833 14.5 16.5128 14.5 16.3384C14.5 15.3791 14.8432 14.5578 15.5294 13.8747C16.2157 13.1916 17.0407 12.85 18.0044 12.85C18.9681 12.85 19.7917 13.1939 20.475 13.8817C21.1583 14.5695 21.5 15.3963 21.5 16.3622C21.5 16.4207 21.45 16.8 21.35 17.5L26.85 23C27.1167 22.9333 27.3333 22.8917 27.5 22.875C27.6667 22.8583 27.8333 22.85 28 22.85C28.1667 22.85 28.3333 22.8583 28.5 22.875C28.6667 22.8917 28.8833 22.9333 29.15 23L37.15 15C37.0833 14.7333 37.0417 14.5167 37.025 14.35C37.0083 14.1833 37 14.0128 37 13.8384C37 12.8791 37.3432 12.0578 38.0294 11.3747C38.7157 10.6916 39.5407 10.35 40.5045 10.35C41.4682 10.35 42.2917 10.6932 42.975 11.3795C43.6583 12.0657 44 12.8907 44 13.8545C44 14.8182 43.6584 15.6417 42.9753 16.325C42.2922 17.0083 41.471 17.35 40.5117 17.35C40.3372 17.35 40.1667 17.3417 40 17.325C39.8333 17.3083 39.6167 17.2667 39.35 17.2L31.35 25.2C31.4167 25.4667 31.4583 25.6833 31.475 25.85C31.4917 26.0167 31.5 26.1872 31.5 26.3617C31.5 27.321 31.1569 28.1422 30.4706 28.8253C29.7843 29.5084 28.9593 29.85 27.9956 29.85C27.0319 29.85 26.2083 29.5084 25.525 28.8253C24.8417 28.1422 24.5 27.321 24.5 26.3617C24.5 26.1872 24.5083 26.0167 24.525 25.85C24.5417 25.6833 24.5833 25.4667 24.65 25.2L19.15 19.7C18.8833 19.7667 18.6667 19.8083 18.5 19.825C18.3333 19.8417 18.1625 19.85 17.9875 19.85C17.9292 19.85 17.55 19.8 16.85 19.7L6.85 29.7C6.91667 29.9667 6.95833 30.1833 6.975 30.35C6.99167 30.5167 7 30.6872 7 30.8617C7 31.821 6.65685 32.6422 5.97055 33.3253C5.28428 34.0084 4.4593 34.35 3.4956 34.35ZM6 12.25L4.98735 10.0627L2.8 9.05L4.98735 8.03735L6 5.85L7.01265 8.03735L9.2 9.05L7.01265 10.0627L6 12.25ZM28 9.7L26.4642 6.38585L23.15 4.85L26.4642 3.31415L28 0L29.5358 3.31415L32.85 4.85L29.5358 6.38585L28 9.7Z" fill="url(#paint0_linear_9_614)"/>
<defs>
<linearGradient id="paint0_linear_9_614" x1="0" y1="0" x2="41.8787" y2="-2.41631" gradientUnits="userSpaceOnUse">
<stop stop-color="#FF8B57"/>
<stop offset="1" stop-color="#FF62F9"/>
</linearGradient>
</defs>
</svg>
